<svg width="24" height="30" viewBox="0 0 24 30" fill="none" xmlns="http://www.w3.org/2000/svg">
<path d="M12 18C15.3089 18 17.9999 15.309 17.9999 12.0001C17.9999 8.69109 15.3089 6.00012 12 6.00012C8.69101 6.00012 6.00004 8.69109 6.00004 12.0001C6.00004 15.309 8.69101 18 12 18ZM12 9.00009C13.6545 9.00009 14.9999 10.3456 14.9999 12.0001C14.9999 13.6545 13.6545 15 12 15C10.3455 15 9.00001 13.6545 9.00001 12.0001C9.00001 10.3456 10.3455 9.00009 12 9.00009ZM11.13 29.7208C11.3839 29.9021 11.688 29.9996 12 29.9996C12.312 29.9996 12.6161 29.9021 12.87 29.7208C13.326 29.3984 24.0434 21.6599 23.9999 12C23.9999 5.38361 18.6164 0.000167847 12 0.000167847C5.38357 0.000167847 0.000132055 5.38361 0.000132055 11.9925C-0.0433675 21.6599 10.674 29.3984 11.13 29.7208ZM12 3.00014C16.9634 3.00014 20.9999 7.03659 20.9999 12.0075C21.0314 18.6645 14.418 24.6419 12 26.6024C9.58353 24.6404 2.9686 18.6615 3.0001 12C3.0001 7.03659 7.03655 3.00014 12 3.00014Z" fill="#00509D"/>
<path d="M12 18C15.3089 18 17.9999 15.309 17.9999 12.0001C17.9999 8.69109 15.3089 6.00012 12 6.00012C8.69101 6.00012 6.00004 8.69109 6.00004 12.0001C6.00004 15.309 8.69101 18 12 18ZM12 9.00009C13.6545 9.00009 14.9999 10.3456 14.9999 12.0001C14.9999 13.6545 13.6545 15 12 15C10.3455 15 9.00001 13.6545 9.00001 12.0001C9.00001 10.3456 10.3455 9.00009 12 9.00009ZM11.13 29.7208C11.3839 29.9021 11.688 29.9996 12 29.9996C12.312 29.9996 12.6161 29.9021 12.87 29.7208C13.326 29.3984 24.0434 21.6599 23.9999 12C23.9999 5.38361 18.6164 0.000167847 12 0.000167847C5.38357 0.000167847 0.000132055 5.38361 0.000132055 11.9925C-0.0433675 21.6599 10.674 29.3984 11.13 29.7208ZM12 3.00014C16.9634 3.00014 20.9999 7.03659 20.9999 12.0075C21.0314 18.6645 14.418 24.6419 12 26.6024C9.58353 24.6404 2.9686 18.6615 3.0001 12C3.0001 7.03659 7.03655 3.00014 12 3.00014Z" fill="#00509D"/>
</svg>
